<svg xmlns="http://www.w3.org/2000/svg" viewBox="0 0 242.57 250.43"><path d="M147.23,233.86q9.9-4.65,12.88-7.27a69,69,0,0,0,6.65-6.89q3.68-4.27,10.87-11.91a144.92,144.92,0,0,0,14.53-18.49q7.32-10.86,17.88-34.61t9.83-35.58q-2,19.17-17.16,38.57t-21.48,25a84.07,84.07,0,0,1-10.56,8.3,61.57,61.57,0,0,1-9.89,4.94,70.23,70.23,0,0,1-12.2,3.61q-6.6,1.33-29.36,1t-26.43-2c-2.44-1.1-4-2.52-4.64-4.28s-1.08-7-1.28-15.8-.1-22.87.31-42.24q20.5-14.52,29.41-15.5a90.83,90.83,0,0,1,17.15-.31,70.3,70.3,0,0,1,13.86,2.32q5.61,1.65,15.5,6.9-9.15-9.15-14.46-11.84t-15.2-3.66a104.24,104.24,0,0,0-20.14,0,248.69,248.69,0,0,0-26.12,4.27v-66h57.49a128.17,128.17,0,0,1,18.07,0,30.49,30.49,0,0,1,11.59,4q6,3.34,10.93,11.84t5.92,14.52a68.85,68.85,0,0,1,.67,13.61q-.3,7.57-4.94,28a135.25,135.25,0,0,0,9.88-29,68,68,0,0,0,.31-26.13q-2.39-12.87-5.62-20.38a56.56,56.56,0,0,0-9.21-14.47A65.24,65.24,0,0,0,170,23,27.47,27.47,0,0,0,156.51,18v.61a19.22,19.22,0,0,1,7.87,7,13.15,13.15,0,0,1,2.32,7.94,12,12,0,0,1-2.25,6.29q-2,2.63-7.57,3.29t-111.21.67q-9.15.87-16.86,1.75v8.89c1.76,0,3.51.1,5.2.23q12.89,1,17.83,2.32a14.63,14.63,0,0,1,8.3,6.28q3.34,5,4,19.47v97.66q-1.33,14.54-4.63,18.19a16.55,16.55,0,0,1-8.92,4.94q-5.61,1.29-12.87,2.26a77.27,77.27,0,0,0-8.87,1.75v4.56q4.9-.85,10.51-1.3,7.57-.61,26.43-1.29t54.51-.36q35.64.3,37.29,2.62a12.32,12.32,0,0,1,1.95,6.29,9.81,9.81,0,0,1-2,7Q155.17,228,147.23,233.86Z" style="fill:#333;stroke:#fff;stroke-miterlimit:10;stroke-width:2px"/></svg>